<?xml version="1.0" encoding="UTF-8" standalone="no"?>
<!-- Created with Inkscape (http://www.inkscape.org/) -->

<svg
   xmlns:dc="http://purl.org/dc/elements/1.1/"
   xmlns:cc="http://creativecommons.org/ns#"
   xmlns:rdf="http://www.w3.org/1999/02/22-rdf-syntax-ns#"
   xmlns:svg="http://www.w3.org/2000/svg"
   xmlns="http://www.w3.org/2000/svg"
   xmlns:sodipodi="http://sodipodi.sourceforge.net/DTD/sodipodi-0.dtd"
   xmlns:inkscape="http://www.inkscape.org/namespaces/inkscape"
   width="125.16635mm"
   height="78.316849mm"
   viewBox="0 0 125.16635 78.316849"
   version="1.1"
   id="svg8"
   sodipodi:docname="aup.svg"
   inkscape:version="0.92.4 (f8dce91, 2019-08-02)">
  <defs
     id="defs2">
    <clipPath
       clipPathUnits="userSpaceOnUse"
       id="presentation_clip_path">
      <rect
         id="rect4802"
         height="11270"
         width="17910"
         y="0"
         x="0" />
    </clipPath>
    <clipPath
       clipPathUnits="userSpaceOnUse"
       id="presentation_clip_path_shrink">
      <rect
         id="rect4805"
         height="11248"
         width="17875"
         y="11"
         x="17" />
    </clipPath>
    <g
       transform="matrix(4.8828125e-4,0,0,-4.8828125e-4,0,0)"
       id="bullet-char-template-57356">
      <path
         id="path4812"
         d="M 580,1141 1163,571 580,0 -4,571 Z"
         inkscape:connector-curvature="0" />
    </g>
    <g
       transform="matrix(4.8828125e-4,0,0,-4.8828125e-4,0,0)"
       id="bullet-char-template-57354">
      <path
         id="path4815"
         d="M 8,1128 H 1137 V 0 H 8 Z"
         inkscape:connector-curvature="0" />
    </g>
    <g
       transform="matrix(4.8828125e-4,0,0,-4.8828125e-4,0,0)"
       id="bullet-char-template-10146">
      <path
         id="path4818"
         d="M 174,0 602,739 174,1481 1456,739 Z M 1358,739 309,1346 659,739 Z"
         inkscape:connector-curvature="0" />
    </g>
    <g
       transform="matrix(4.8828125e-4,0,0,-4.8828125e-4,0,0)"
       id="bullet-char-template-10132">
      <path
         id="path4821"
         d="M 2015,739 1276,0 H 717 l 543,543 H 174 v 393 h 1086 l -543,545 h 557 z"
         inkscape:connector-curvature="0" />
    </g>
    <g
       transform="matrix(4.8828125e-4,0,0,-4.8828125e-4,0,0)"
       id="bullet-char-template-10007">
      <path
         id="path4824"
         d="m 0,-2 c -7,16 -16,29 -25,39 l 381,530 c -94,256 -141,385 -141,387 0,25 13,38 40,38 9,0 21,-2 34,-5 21,4 42,12 65,25 l 27,-13 111,-251 280,301 64,-25 24,25 c 21,-10 41,-24 62,-43 C 886,937 835,863 770,784 769,783 710,716 594,584 L 774,223 c 0,-27 -21,-55 -63,-84 l 16,-20 C 717,90 699,76 672,76 641,76 570,178 457,381 L 164,-76 c -22,-34 -53,-51 -92,-51 -42,0 -63,17 -64,51 -7,9 -10,24 -10,44 0,9 1,19 2,30 z"
         inkscape:connector-curvature="0" />
    </g>
    <g
       transform="matrix(4.8828125e-4,0,0,-4.8828125e-4,0,0)"
       id="bullet-char-template-10004">
      <path
         id="path4827"
         d="M 285,-33 C 182,-33 111,30 74,156 52,228 41,333 41,471 c 0,78 14,145 41,201 34,71 87,106 158,106 53,0 88,-31 106,-94 l 23,-176 c 8,-64 28,-97 59,-98 l 735,706 c 11,11 33,17 66,17 42,0 63,-15 63,-46 V 965 c 0,-36 -10,-64 -30,-84 L 442,47 C 390,-6 338,-33 285,-33 Z"
         inkscape:connector-curvature="0" />
    </g>
    <g
       transform="matrix(4.8828125e-4,0,0,-4.8828125e-4,0,0)"
       id="bullet-char-template-9679">
      <path
         id="path4830"
         d="M 813,0 C 632,0 489,54 383,161 276,268 223,411 223,592 c 0,181 53,324 160,431 106,107 249,161 430,161 179,0 323,-54 432,-161 108,-107 162,-251 162,-431 0,-180 -54,-324 -162,-431 C 1136,54 992,0 813,0 Z"
         inkscape:connector-curvature="0" />
    </g>
    <g
       transform="matrix(4.8828125e-4,0,0,-4.8828125e-4,0,0)"
       id="bullet-char-template-8226">
      <path
         id="path4833"
         d="m 346,457 c -73,0 -137,26 -191,78 -54,51 -81,114 -81,188 0,73 27,136 81,188 54,52 118,78 191,78 73,0 134,-26 185,-79 51,-51 77,-114 77,-187 0,-75 -25,-137 -76,-188 -50,-52 -112,-78 -186,-78 z"
         inkscape:connector-curvature="0" />
    </g>
    <g
       transform="matrix(4.8828125e-4,0,0,-4.8828125e-4,0,0)"
       id="bullet-char-template-8211">
      <path
         id="path4836"
         d="M -4,459 H 1135 V 606 H -4 Z"
         inkscape:connector-curvature="0" />
    </g>
    <g
       transform="matrix(4.8828125e-4,0,0,-4.8828125e-4,0,0)"
       id="bullet-char-template-61548">
      <path
         id="path4839"
         d="m 173,740 c 0,163 58,303 173,419 116,115 255,173 419,173 163,0 302,-58 418,-173 116,-116 174,-256 174,-419 0,-163 -58,-303 -174,-418 C 1067,206 928,148 765,148 601,148 462,206 346,322 231,437 173,577 173,740 Z"
         inkscape:connector-curvature="0" />
    </g>
    <clipPath
       clipPathUnits="userSpaceOnUse"
       id="presentation_clip_path-0">
      <rect
         id="rect5002"
         height="11270"
         width="17910"
         y="0"
         x="0" />
    </clipPath>
    <clipPath
       clipPathUnits="userSpaceOnUse"
       id="presentation_clip_path_shrink-6">
      <rect
         id="rect5005"
         height="11248"
         width="17875"
         y="11"
         x="17" />
    </clipPath>
    <g
       transform="matrix(4.8828125e-4,0,0,-4.8828125e-4,0,0)"
       id="bullet-char-template-57356-3">
      <path
         id="path5012"
         d="M 580,1141 1163,571 580,0 -4,571 Z"
         inkscape:connector-curvature="0" />
    </g>
    <g
       transform="matrix(4.8828125e-4,0,0,-4.8828125e-4,0,0)"
       id="bullet-char-template-57354-9">
      <path
         id="path5015"
         d="M 8,1128 H 1137 V 0 H 8 Z"
         inkscape:connector-curvature="0" />
    </g>
    <g
       transform="matrix(4.8828125e-4,0,0,-4.8828125e-4,0,0)"
       id="bullet-char-template-10146-0">
      <path
         id="path5018"
         d="M 174,0 602,739 174,1481 1456,739 Z M 1358,739 309,1346 659,739 Z"
         inkscape:connector-curvature="0" />
    </g>
    <g
       transform="matrix(4.8828125e-4,0,0,-4.8828125e-4,0,0)"
       id="bullet-char-template-10132-8">
      <path
         id="path5021"
         d="M 2015,739 1276,0 H 717 l 543,543 H 174 v 393 h 1086 l -543,545 h 557 z"
         inkscape:connector-curvature="0" />
    </g>
    <g
       transform="matrix(4.8828125e-4,0,0,-4.8828125e-4,0,0)"
       id="bullet-char-template-10007-3">
      <path
         id="path5024"
         d="m 0,-2 c -7,16 -16,29 -25,39 l 381,530 c -94,256 -141,385 -141,387 0,25 13,38 40,38 9,0 21,-2 34,-5 21,4 42,12 65,25 l 27,-13 111,-251 280,301 64,-25 24,25 c 21,-10 41,-24 62,-43 C 886,937 835,863 770,784 769,783 710,716 594,584 L 774,223 c 0,-27 -21,-55 -63,-84 l 16,-20 C 717,90 699,76 672,76 641,76 570,178 457,381 L 164,-76 c -22,-34 -53,-51 -92,-51 -42,0 -63,17 -64,51 -7,9 -10,24 -10,44 0,9 1,19 2,30 z"
         inkscape:connector-curvature="0" />
    </g>
    <g
       transform="matrix(4.8828125e-4,0,0,-4.8828125e-4,0,0)"
       id="bullet-char-template-10004-8">
      <path
         id="path5027"
         d="M 285,-33 C 182,-33 111,30 74,156 52,228 41,333 41,471 c 0,78 14,145 41,201 34,71 87,106 158,106 53,0 88,-31 106,-94 l 23,-176 c 8,-64 28,-97 59,-98 l 735,706 c 11,11 33,17 66,17 42,0 63,-15 63,-46 V 965 c 0,-36 -10,-64 -30,-84 L 442,47 C 390,-6 338,-33 285,-33 Z"
         inkscape:connector-curvature="0" />
    </g>
    <g
       transform="matrix(4.8828125e-4,0,0,-4.8828125e-4,0,0)"
       id="bullet-char-template-9679-7">
      <path
         id="path5030"
         d="M 813,0 C 632,0 489,54 383,161 276,268 223,411 223,592 c 0,181 53,324 160,431 106,107 249,161 430,161 179,0 323,-54 432,-161 108,-107 162,-251 162,-431 0,-180 -54,-324 -162,-431 C 1136,54 992,0 813,0 Z"
         inkscape:connector-curvature="0" />
    </g>
    <g
       transform="matrix(4.8828125e-4,0,0,-4.8828125e-4,0,0)"
       id="bullet-char-template-8226-3">
      <path
         id="path5033"
         d="m 346,457 c -73,0 -137,26 -191,78 -54,51 -81,114 -81,188 0,73 27,136 81,188 54,52 118,78 191,78 73,0 134,-26 185,-79 51,-51 77,-114 77,-187 0,-75 -25,-137 -76,-188 -50,-52 -112,-78 -186,-78 z"
         inkscape:connector-curvature="0" />
    </g>
    <g
       transform="matrix(4.8828125e-4,0,0,-4.8828125e-4,0,0)"
       id="bullet-char-template-8211-1">
      <path
         id="path5036"
         d="M -4,459 H 1135 V 606 H -4 Z"
         inkscape:connector-curvature="0" />
    </g>
    <g
       transform="matrix(4.8828125e-4,0,0,-4.8828125e-4,0,0)"
       id="bullet-char-template-61548-0">
      <path
         id="path5039"
         d="m 173,740 c 0,163 58,303 173,419 116,115 255,173 419,173 163,0 302,-58 418,-173 116,-116 174,-256 174,-419 0,-163 -58,-303 -174,-418 C 1067,206 928,148 765,148 601,148 462,206 346,322 231,437 173,577 173,740 Z"
         inkscape:connector-curvature="0" />
    </g>
  </defs>
  <sodipodi:namedview
     id="base"
     pagecolor="#ffffff"
     bordercolor="#666666"
     borderopacity="1.0"
     inkscape:pageopacity="0.0"
     inkscape:pageshadow="2"
     inkscape:zoom="1.4142136"
     inkscape:cx="238.13478"
     inkscape:cy="137.87577"
     inkscape:document-units="mm"
     inkscape:current-layer="layer1"
     showgrid="false"
     fit-margin-top="0"
     fit-margin-left="0"
     fit-margin-right="0"
     fit-margin-bottom="0"
     inkscape:window-width="1920"
     inkscape:window-height="1025"
     inkscape:window-x="0"
     inkscape:window-y="27"
     inkscape:window-maximized="1" />
  <metadata
     id="metadata5">
    <rdf:RDF>
      <cc:Work
         rdf:about="">
        <dc:format>image/svg+xml</dc:format>
        <dc:type
           rdf:resource="http://purl.org/dc/dcmitype/StillImage" />
        <dc:title />
      </cc:Work>
    </rdf:RDF>
  </metadata>
  <g
     inkscape:label="Capa 1"
     inkscape:groupmode="layer"
     id="layer1"
     transform="translate(-68.999781,-22.552255)">
    <g
       id="g3777"
       style="fill:#008000;stroke:#b3b3b3;stroke-opacity:1"
       transform="matrix(0.81577687,0,0,0.81777332,35.875496,4.1348116)">
      <path
         sodipodi:nodetypes="cccc"
         inkscape:connector-curvature="0"
         id="path3746"
         d="m 85.176281,42.690125 c 31.572909,-8.730704 41.194009,-3.805674 57.195669,-2.004521 11.97269,0.210705 25.93444,-0.999345 35.68049,0.801808 l 15.368,1.202713"
         style="fill:#008000;stroke:#b3b3b3;stroke-width:0.26458332px;stroke-linecap:butt;stroke-linejoin:miter;stroke-opacity:1" />
    </g>
    <g
       id="g3780"
       style="fill:#ff2a2a;stroke:#ececec;stroke-opacity:1"
       transform="matrix(0.81777332,0,0,0.81777332,35.760816,3.7735696)">
      <g
         id="g3795"
         style="fill:#ff2a2a;stroke:#ececec;stroke-opacity:1">
        <g
           id="g3802"
           style="fill:#ff2a2a;stroke:#ececec;stroke-opacity:1">
          <g
             id="g3798"
             style="fill:#ff2a2a;stroke:#ececec;stroke-opacity:1"
             transform="matrix(1.0000502,0,0,0.79413325,-0.00701065,10.986654)">
            <g
               id="g3805"
               style="fill:#ff2a2a;stroke:#ececec;stroke-opacity:1">
              <path
                 sodipodi:nodetypes="ccccccccc"
                 inkscape:connector-curvature="0"
                 id="path3748"
                 d="m 85.44355,53.247271 h 12.695301 c 12.811419,-0.922429 25.853439,-4.423214 36.081389,-6.548104 2.46642,-1.093406 24.14715,-1.606424 26.20051,0.133635 4.07731,2.669676 5.93722,5.028287 11.35896,5.479026 l 5.00319,-0.26727 c 2.81316,-1.510166 3.17139,-0.195661 5.14494,0.668174 l 6.1472,0.133635 5.61267,0.400904"
                 style="fill:#ff2a2a;stroke:#ececec;stroke-width:0.26458332px;stroke-linecap:butt;stroke-linejoin:miter;stroke-opacity:1" />
            </g>
          </g>
        </g>
      </g>
    </g>
    <g
       id="g3783"
       style="fill:#ff7f2a;stroke:#cccccc;stroke-opacity:1"
       transform="matrix(0.81530357,0,0,0.81530357,35.646216,7.200944)">
      <g
         id="g3792"
         style="fill:#ff7f2a;stroke:#cccccc;stroke-opacity:1">
        <path
           style="fill:#ff7f2a;stroke:#cccccc;stroke-width:0.26458332px;stroke-linecap:butt;stroke-linejoin:miter;stroke-opacity:1"
           d="m 85.44355,59.39447 h 21.9161 c 2.92353,-0.508543 5.96228,-1.823657 8.55263,0 h 2.67269 c 3.42403,-1.878337 8.43835,-1.568228 8.8199,0 h 2.67269 c 8.31769,-3.398531 8.1426,-0.427467 11.35896,0 h 2.27178 c 8.66233,-4.043349 8.92236,-1.364862 10.82442,0 h 0.93545 c 8.764,-7.089378 14.5299,-3.360978 20.17884,-0.06682 6.60896,-1.452615 11.33315,-0.09804 16.97162,0.06682 h 1.46998 l -0.13363,-0.133635"
           id="path3750"
           inkscape:connector-curvature="0"
           sodipodi:nodetypes="cccccccccccccc" />
      </g>
    </g>
    <g
       id="g3786"
       style="fill:#ffff00"
       transform="matrix(0.81658877,0,0,0.81777332,35.381505,9.19085)">
      <g
         id="g3789"
         style="fill:#ffff00">
        <path
           style="fill:#ffff00;stroke:#e6e6e6;stroke-width:0.26458332px;stroke-linecap:butt;stroke-linejoin:miter;stroke-opacity:1"
           d="m 85.44355,66.744381 h 68.15373 c 12.72243,-0.121844 31.82633,-11.092182 37.95227,0 h 2.40543 l -0.25832,0.14914"
           id="path3752"
           inkscape:connector-curvature="0"
           sodipodi:nodetypes="ccccc" />
      </g>
    </g>
    <path
       style="fill:#5579f7;stroke:#808080;stroke-width:0.19707082px;stroke-linecap:butt;stroke-linejoin:miter;stroke-opacity:1;fill-opacity:1"
       d="m 105.41793,72.215259 c 0.43679,-1.651853 32.0703,1.148749 43.54958,-2.282438 5.12446,-2.252107 40.30168,-1.494862 41.43433,-0.445521 2.29384,0.90932 3.2207,1.818639 3.48652,2.727959"
       id="path3754"
       inkscape:connector-curvature="0"
       sodipodi:nodetypes="cccc" />
    <path
       style="fill:#ff9b8f;stroke:#cccccc;stroke-width:0.21636918px;stroke-linecap:butt;stroke-linejoin:miter;stroke-opacity:1;fill-opacity:1"
       d="m 105.31964,80.507659 c 5.82841,-0.574817 11.65683,-5.39469 17.48526,0 3.72203,-1.022607 16.11178,-5.057903 18.25026,0 3.41195,-1.214607 6.87673,-2.218012 11.14685,0 6.21444,-3.158149 8.08385,-1.699712 9.72619,0 4.09465,-3.410383 7.07875,-2.378525 9.72617,0 23.05455,-4.854931 15.34658,-0.128091 22.40301,0 v -0.109281"
       id="path3756"
       inkscape:connector-curvature="0"
       sodipodi:nodetypes="cccccccc" />
    <path
       style="fill:#b06826;stroke:#999999;stroke-width:0.21587427px;stroke-linecap:butt;stroke-linejoin:miter;stroke-opacity:1;fill-opacity:1"
       d="m 105.44801,88.800097 c 4.79036,-5.718695 17.31793,0.426685 35.13602,0 h 3.48098 c 0.14503,-1.019999 0.58015,-1.020015 1.30535,0 h 28.1741 c 4.1046,-2.53849 4.28385,-0.0065 6.41804,0 h 14.14143"
       id="path3758"
       inkscape:connector-curvature="0"
       sodipodi:nodetypes="ccccccc" />
    <path
       style="fill:none;stroke:#b3b3b3;stroke-width:0.21636918px;stroke-linecap:butt;stroke-linejoin:miter;stroke-opacity:1"
       d="m 105.14423,39.045656 h 88.51918"
       id="path3760"
       inkscape:connector-curvature="0" />
    <path
       style="fill:none;stroke:#cccccc;stroke-width:0.21636918px;stroke-linecap:butt;stroke-linejoin:miter;stroke-opacity:1"
       d="m 105.30865,55.630458 h 88.84702 v 0"
       id="path3764"
       inkscape:connector-curvature="0" />
    <path
       style="fill:none;stroke:#e6e6e6;stroke-width:0.21636918px;stroke-linecap:butt;stroke-linejoin:miter;stroke-opacity:1"
       d="m 105.41793,63.922859 h 88.57383 0.16391"
       id="path3766"
       inkscape:connector-curvature="0"
       sodipodi:nodetypes="ccc" />
    <path
       style="fill:none;stroke:#808080;stroke-width:0.21636918px;stroke-linecap:butt;stroke-linejoin:miter;stroke-opacity:1"
       d="m 105.41793,72.215259 h 88.73774"
       id="path3772"
       inkscape:connector-curvature="0" />
    <g
       style="fill-rule:evenodd;stroke-width:28.22200012;stroke-linejoin:round"
       id="g4952"
       transform="matrix(0.00903342,0,0,0.00903342,67.319896,17.392975)">
      <text
         xml:space="preserve"
         style="font-style:normal;font-variant:normal;font-weight:normal;font-stretch:normal;font-size:1131.30554199px;line-height:1.25;font-family:Ubuntu;-inkscape-font-specification:Ubuntu;text-align:start;letter-spacing:0px;word-spacing:0px;text-anchor:start;fill:#000000;fill-opacity:1;fill-rule:evenodd;stroke:none;stroke-width:748.30560303;stroke-linejoin:round"
         x="2752.7029"
         y="3887.8413"
         id="text4956-0-7"><tspan
           sodipodi:role="line"
           id="tspan4954-1-9"
           x="2752.7029"
           y="3887.8413"
           style="font-style:normal;font-variant:normal;font-weight:normal;font-stretch:normal;font-size:353.53295898px;font-family:arial;-inkscape-font-specification:arial;stroke-width:748.30560303">Pruebas</tspan></text>
      <g
         id="g4849">
        <g
           class="Master_Slide"
           id="id2">
          <g
             class="Background"
             id="bg-id2" />
          <g
             class="BackgroundObjects"
             id="bo-id2" />
        </g>
      </g>
      <text
         xml:space="preserve"
         style="font-style:normal;font-variant:normal;font-weight:normal;font-stretch:normal;font-size:1131.30554199px;line-height:1.25;font-family:Ubuntu;-inkscape-font-specification:Ubuntu;text-align:start;letter-spacing:0px;word-spacing:0px;text-anchor:start;fill:#000000;fill-opacity:1;stroke:none;stroke-width:748.30560303"
         x="5027.939"
         y="1135.5198"
         id="text4956"><tspan
           sodipodi:role="line"
           id="tspan4954"
           x="5027.939"
           y="1135.5198"
           style="font-style:normal;font-variant:normal;font-weight:normal;font-stretch:normal;font-size:353.53295898px;font-family:arial;-inkscape-font-specification:arial;stroke-width:748.30560303">Inicio</tspan></text>
      <text
         xml:space="preserve"
         style="font-style:normal;font-variant:normal;font-weight:normal;font-stretch:normal;font-size:1131.30554199px;line-height:1.25;font-family:Ubuntu;-inkscape-font-specification:Ubuntu;text-align:start;letter-spacing:0px;word-spacing:0px;text-anchor:start;fill:#000000;fill-opacity:1;fill-rule:evenodd;stroke:none;stroke-width:748.30560303;stroke-linejoin:round"
         x="6910.9434"
         y="1139.6626"
         id="text4956-3"><tspan
           sodipodi:role="line"
           id="tspan4954-6"
           x="6910.9434"
           y="1139.6626"
           style="font-style:normal;font-variant:normal;font-weight:normal;font-stretch:normal;font-size:353.53295898px;font-family:arial;-inkscape-font-specification:arial;stroke-width:748.30560303">Elaboración</tspan></text>
      <text
         xml:space="preserve"
         style="font-style:normal;font-variant:normal;font-weight:normal;font-stretch:normal;font-size:1131.30554199px;line-height:1.25;font-family:Ubuntu;-inkscape-font-specification:Ubuntu;text-align:start;letter-spacing:0px;word-spacing:0px;text-anchor:start;fill:#000000;fill-opacity:1;fill-rule:evenodd;stroke:none;stroke-width:748.30560303;stroke-linejoin:round"
         x="9303.292"
         y="1139.6626"
         id="text4956-3-0"><tspan
           sodipodi:role="line"
           id="tspan4954-6-1"
           x="9303.292"
           y="1139.6626"
           style="font-style:normal;font-variant:normal;font-weight:normal;font-stretch:normal;font-size:353.53295898px;font-family:arial;-inkscape-font-specification:arial;stroke-width:748.30560303">Construcción</tspan></text>
      <text
         xml:space="preserve"
         style="font-style:normal;font-variant:normal;font-weight:normal;font-stretch:normal;font-size:1131.30554199px;line-height:1.25;font-family:Ubuntu;-inkscape-font-specification:Ubuntu;text-align:start;letter-spacing:0px;word-spacing:0px;text-anchor:start;fill:#000000;fill-opacity:1;fill-rule:evenodd;stroke:none;stroke-width:748.30560303;stroke-linejoin:round"
         x="12040.021"
         y="1139.6626"
         id="text4956-3-2"><tspan
           sodipodi:role="line"
           id="tspan4954-6-0"
           x="12040.021"
           y="1139.6626"
           style="font-style:normal;font-variant:normal;font-weight:normal;font-stretch:normal;font-size:353.53295898px;font-family:arial;-inkscape-font-specification:arial;stroke-width:748.30560303">Transición</tspan></text>
      <g
         style="fill-rule:evenodd;stroke-width:28.22200012;stroke-linejoin:round"
         id="g5152"
         transform="matrix(0.89814702,0,0,0.91980872,1352.6037,16.487893)">
        <g
           id="g5049">
          <g
             class="Master_Slide"
             id="id2-0">
            <g
               class="Background"
               id="bg-id2-5" />
            <g
               class="BackgroundObjects"
               id="bo-id2-0" />
          </g>
        </g>
        <g
           id="g5093"
           class="SlideGroup">
          <g
             id="g5091">
            <g
               id="container-id1">
              <g
                 clip-path="url(#presentation_clip_path-0)"
                 class="Slide"
                 id="id1">
                <g
                   id="g5087"
                   class="Page">
                  <g
                     id="g5085"
                     class="com.sun.star.drawing.TableShape">
                    <g
                       id="g5083">
                      <rect
                         id="rect5051"
                         height="8973"
                         width="10950"
                         y="614"
                         x="3167"
                         class="BoundingBox"
                         style="fill:none;stroke:none" />
                      <path
                         id="path5053"
                         d="M 3156,616 H 14127"
                         inkscape:connector-curvature="0"
                         style="fill:none;stroke:#000000;stroke-width:26;stroke-linejoin:round" />
                      <path
                         id="path5055"
                         d="M 3169,603 V 9597"
                         inkscape:connector-curvature="0"
                         style="fill:none;stroke:#000000;stroke-width:26;stroke-linejoin:round" />
                      <path
                         id="path5057"
                         d="M 5905,603 V 9597"
                         inkscape:connector-curvature="0"
                         style="fill:none;stroke:#000000;stroke-width:26;stroke-linejoin:round" />
                      <path
                         id="path5059"
                         d="M 8641,603 V 9597"
                         inkscape:connector-curvature="0"
                         style="fill:none;stroke:#000000;stroke-width:26;stroke-linejoin:round" />
                      <path
                         id="path5061"
                         d="M 11377,603 V 9597"
                         inkscape:connector-curvature="0"
                         style="fill:none;stroke:#000000;stroke-width:26;stroke-linejoin:round" />
                      <path
                         id="path5063"
                         d="M 14114,603 V 9597"
                         inkscape:connector-curvature="0"
                         style="fill:none;stroke:#000000;stroke-width:26;stroke-linejoin:round" />
                      <path
                         id="path5065"
                         d="M 3156,1590 H 14127"
                         inkscape:connector-curvature="0"
                         style="fill:none;stroke:#000000;stroke-width:26;stroke-linejoin:round" />
                      <path
                         id="path5067"
                         d="M 3156,2588 H 14127"
                         inkscape:connector-curvature="0"
                         style="fill:none;stroke:#000000;stroke-width:26;stroke-linejoin:round" />
                      <path
                         id="path5069"
                         d="M 3156,3586 H 14127"
                         inkscape:connector-curvature="0"
                         style="fill:none;stroke:#000000;stroke-width:26;stroke-linejoin:round" />
                      <path
                         id="path5071"
                         d="M 3156,4584 H 14127"
                         inkscape:connector-curvature="0"
                         style="fill:none;stroke:#000000;stroke-width:26;stroke-linejoin:round" />
                      <path
                         id="path5073"
                         d="M 3156,5582 H 14127"
                         inkscape:connector-curvature="0"
                         style="fill:none;stroke:#000000;stroke-width:26;stroke-linejoin:round" />
                      <path
                         id="path5075"
                         d="M 3156,6580 H 14127"
                         inkscape:connector-curvature="0"
                         style="fill:none;stroke:#000000;stroke-width:26;stroke-linejoin:round" />
                      <path
                         id="path5077"
                         d="M 3156,7578 H 14127"
                         inkscape:connector-curvature="0"
                         style="fill:none;stroke:#000000;stroke-width:26;stroke-linejoin:round" />
                      <path
                         id="path5079"
                         d="M 3156,8576 H 14127"
                         inkscape:connector-curvature="0"
                         style="fill:none;stroke:#000000;stroke-width:26;stroke-linejoin:round" />
                      <path
                         id="path5081"
                         d="M 3156,9584 H 14127"
                         inkscape:connector-curvature="0"
                         style="fill:none;stroke:#000000;stroke-width:26;stroke-linejoin:round" />
                    </g>
                  </g>
                </g>
              </g>
            </g>
          </g>
        </g>
      </g>
      <text
         xml:space="preserve"
         style="font-style:normal;font-variant:normal;font-weight:normal;font-stretch:normal;font-size:1131.30554199px;line-height:1.25;font-family:Ubuntu;-inkscape-font-specification:Ubuntu;text-align:start;letter-spacing:0px;word-spacing:0px;text-anchor:start;fill:#000000;fill-opacity:1;fill-rule:evenodd;stroke:none;stroke-width:748.30560303;stroke-linejoin:round"
         x="2518.7981"
         y="2065.1023"
         id="text4956-31"><tspan
           sodipodi:role="line"
           id="tspan4954-8"
           x="2518.7981"
           y="2065.1023"
           style="font-style:normal;font-variant:normal;font-weight:normal;font-stretch:normal;font-size:353.53295898px;font-family:arial;-inkscape-font-specification:arial;stroke-width:748.30560303">Modelado</tspan></text>
      <text
         xml:space="preserve"
         style="font-style:normal;font-variant:normal;font-weight:normal;font-stretch:normal;font-size:1131.30554199px;line-height:1.25;font-family:Ubuntu;-inkscape-font-specification:Ubuntu;text-align:start;letter-spacing:0px;word-spacing:0px;text-anchor:start;fill:#000000;fill-opacity:1;fill-rule:evenodd;stroke:none;stroke-width:748.30560303;stroke-linejoin:round"
         x="1583.6965"
         y="2948.3486"
         id="text4956-0"><tspan
           sodipodi:role="line"
           id="tspan4954-1"
           x="1583.6965"
           y="2948.3486"
           style="font-style:normal;font-variant:normal;font-weight:normal;font-stretch:normal;font-size:353.53295898px;font-family:arial;-inkscape-font-specification:arial;stroke-width:748.30560303">Implementación</tspan></text>
      <text
         xml:space="preserve"
         style="font-style:normal;font-variant:normal;font-weight:normal;font-stretch:normal;font-size:1131.30554199px;line-height:1.25;font-family:Ubuntu;-inkscape-font-specification:Ubuntu;text-align:start;letter-spacing:0px;word-spacing:0px;text-anchor:start;fill:#000000;fill-opacity:1;fill-rule:evenodd;stroke:none;stroke-width:748.30560303;stroke-linejoin:round"
         x="2303.5366"
         y="4785.1489"
         id="text4956-0-7-1"><tspan
           sodipodi:role="line"
           id="tspan4954-1-9-0"
           x="2303.5366"
           y="4785.1489"
           style="font-style:normal;font-variant:normal;font-weight:normal;font-stretch:normal;font-size:353.53295898px;font-family:arial;-inkscape-font-specification:arial;stroke-width:748.30560303">Despliegue</tspan></text>
      <text
         xml:space="preserve"
         style="font-style:normal;font-variant:normal;font-weight:normal;font-stretch:normal;font-size:1131.30554199px;line-height:1.25;font-family:Ubuntu;-inkscape-font-specification:Ubuntu;text-align:start;letter-spacing:0px;word-spacing:0px;text-anchor:start;fill:#000000;fill-opacity:1;fill-rule:evenodd;stroke:none;stroke-width:748.30560303;stroke-linejoin:round"
         x="5324.0361"
         y="8461.4639"
         id="text4956-2"
         inkscape:transform-center-x="1.6936671"
         inkscape:transform-center-y="-6.6053016"><tspan
           sodipodi:role="line"
           id="tspan4954-9"
           x="5324.0361"
           y="8461.4639"
           style="font-style:normal;font-variant:normal;font-weight:normal;font-stretch:normal;font-size:353.53295898px;font-family:'STIX Math';-inkscape-font-specification:'STIX Math';stroke-width:748.30560303">I1</tspan></text>
      <text
         xml:space="preserve"
         style="font-style:normal;font-variant:normal;font-weight:normal;font-stretch:normal;font-size:1131.30554199px;line-height:1.25;font-family:Ubuntu;-inkscape-font-specification:Ubuntu;text-align:start;letter-spacing:0px;word-spacing:0px;text-anchor:start;fill:#000000;fill-opacity:1;fill-rule:evenodd;stroke:none;stroke-width:748.30560303;stroke-linejoin:round"
         x="7770.8115"
         y="8461.4639"
         id="text4956-2-0"
         inkscape:transform-center-x="1.6936698"
         inkscape:transform-center-y="-6.6053016"><tspan
           sodipodi:role="line"
           id="tspan4954-9-2"
           x="7770.8115"
           y="8461.4639"
           style="font-style:normal;font-variant:normal;font-weight:normal;font-stretch:normal;font-size:353.53295898px;font-family:'STIX Math';-inkscape-font-specification:'STIX Math';stroke-width:748.30560303">E1</tspan></text>
      <text
         xml:space="preserve"
         style="font-style:normal;font-variant:normal;font-weight:normal;font-stretch:normal;font-size:1131.30554199px;line-height:1.25;font-family:Ubuntu;-inkscape-font-specification:Ubuntu;text-align:start;letter-spacing:0px;word-spacing:0px;text-anchor:start;fill:#000000;fill-opacity:1;fill-rule:evenodd;stroke:none;stroke-width:748.30560303;stroke-linejoin:round"
         x="9345.7168"
         y="8461.4639"
         id="text4956-2-0-5"
         inkscape:transform-center-x="1.6936703"
         inkscape:transform-center-y="-6.6053016"><tspan
           sodipodi:role="line"
           id="tspan4954-9-2-2"
           x="9345.7168"
           y="8461.4639"
           style="font-style:normal;font-variant:normal;font-weight:normal;font-stretch:normal;font-size:353.53295898px;font-family:'STIX Math';-inkscape-font-specification:'STIX Math';stroke-width:748.30560303">C1 C2       Cn</tspan></text>
      <text
         xml:space="preserve"
         style="font-style:normal;font-variant:normal;font-weight:normal;font-stretch:normal;font-size:1131.30554199px;line-height:1.25;font-family:Ubuntu;-inkscape-font-specification:Ubuntu;text-align:start;letter-spacing:0px;word-spacing:0px;text-anchor:start;fill:#000000;fill-opacity:1;fill-rule:evenodd;stroke:none;stroke-width:748.30560303;stroke-linejoin:round"
         x="12117.339"
         y="8461.4639"
         id="text4956-2-0-0"
         inkscape:transform-center-x="1.6936706"
         inkscape:transform-center-y="-6.6053016"><tspan
           sodipodi:role="line"
           id="tspan4954-9-2-8"
           x="12117.339"
           y="8461.4639"
           style="font-style:normal;font-variant:normal;font-weight:normal;font-stretch:normal;font-size:353.53295898px;font-family:'STIX Math';-inkscape-font-specification:'STIX Math';stroke-width:748.30560303">T1        T2</tspan></text>
    </g>
    <text
       xml:space="preserve"
       style="font-style:normal;font-variant:normal;font-weight:normal;font-stretch:normal;font-size:10.21955776px;line-height:1.25;font-family:Ubuntu;-inkscape-font-specification:Ubuntu;text-align:start;letter-spacing:0px;word-spacing:0px;text-anchor:start;fill:#000000;fill-opacity:1;fill-rule:evenodd;stroke:none;stroke-width:6.75975847;stroke-linejoin:round"
       x="68.839165"
       y="68.85202"
       id="text4956-0-7-1-3"><tspan
         sodipodi:role="line"
         id="tspan4954-1-9-0-5"
         x="68.839165"
         y="68.85202"
         style="font-style:normal;font-variant:normal;font-weight:normal;font-stretch:normal;font-size:3.19361162px;font-family:arial;-inkscape-font-specification:arial;stroke-width:6.75975847">Gestión de configuración</tspan></text>
    <text
       xml:space="preserve"
       style="font-style:normal;font-variant:normal;font-weight:normal;font-stretch:normal;font-size:10.21955776px;line-height:1.25;font-family:Ubuntu;-inkscape-font-specification:Ubuntu;text-align:start;letter-spacing:0px;word-spacing:0px;text-anchor:start;fill:#000000;fill-opacity:1;fill-rule:evenodd;stroke:none;stroke-width:6.75975895;stroke-linejoin:round"
       x="75.521118"
       y="77.508217"
       id="text4956-0-7-1-3-8"><tspan
         sodipodi:role="line"
         id="tspan4954-1-9-0-5-4"
         x="75.521118"
         y="77.508217"
         style="font-style:normal;font-variant:normal;font-weight:normal;font-stretch:normal;font-size:3.19361162px;font-family:arial;-inkscape-font-specification:arial;stroke-width:6.75975895">Gestión de proyecto</tspan></text>
    <text
       xml:space="preserve"
       style="font-style:normal;font-variant:normal;font-weight:normal;font-stretch:normal;font-size:10.21955776px;line-height:1.25;font-family:Ubuntu;-inkscape-font-specification:Ubuntu;text-align:start;letter-spacing:0px;word-spacing:0px;text-anchor:start;fill:#000000;fill-opacity:1;fill-rule:evenodd;stroke:none;stroke-width:6.75975895;stroke-linejoin:round"
       x="90.617485"
       y="85.825684"
       id="text4956-0-7-1-3-6"><tspan
         sodipodi:role="line"
         x="90.617485"
         y="85.825684"
         style="font-style:normal;font-variant:normal;font-weight:normal;font-stretch:normal;font-size:3.19361162px;font-family:arial;-inkscape-font-specification:arial;stroke-width:6.75975895"
         id="tspan5278">Ambiente</tspan></text>
    <text
       xml:space="preserve"
       style="font-style:normal;font-variant:normal;font-weight:normal;font-stretch:normal;font-size:10.21955776px;line-height:1.25;font-family:Ubuntu;-inkscape-font-specification:Ubuntu;text-align:start;letter-spacing:0px;word-spacing:0px;text-anchor:start;fill:#000000;fill-opacity:1;fill-rule:evenodd;stroke:none;stroke-width:6.75975895;stroke-linejoin:round"
       x="141.7607"
       y="100.83791"
       id="text4956-0-7-1-3-6-3"><tspan
         sodipodi:role="line"
         x="141.7607"
         y="100.83791"
         style="font-style:normal;font-variant:normal;font-weight:normal;font-stretch:normal;font-size:3.19361162px;font-family:arial;-inkscape-font-specification:arial;stroke-width:6.75975895"
         id="tspan5278-5">Iteraciones</tspan><tspan
         sodipodi:role="line"
         x="141.7607"
         y="113.61236"
         style="font-style:normal;font-variant:normal;font-weight:normal;font-stretch:normal;font-size:3.19361162px;font-family:arial;-inkscape-font-specification:arial;stroke-width:6.75975895"
         id="tspan5362" /></text>
  </g>
</svg>
